<svg width="24" height="24" viewBox="0 0 24 24" fill="none" xmlns="http://www.w3.org/2000/svg">
<path d="M11.6321 11.9C11.6095 11.8653 11.5881 11.83 11.5681 11.794C11.5881 11.8247 11.6095 11.86 11.6321 11.9ZM11.3881 11.431L11.4381 11.541C11.4211 11.5 11.4001 11.468 11.3881 11.431ZM16.8601 2.25501L2.28614 16.823C2.19759 16.9128 2.14795 17.0339 2.14795 17.16C2.14795 17.2861 2.19759 17.4072 2.28614 17.497L6.30014 21.516C6.39004 21.6052 6.51153 21.6552 6.63814 21.6552C6.76476 21.6552 6.88624 21.6052 6.97614 21.516L13.6541 14.837L13.2001 14.38L13.1701 14.342C13.1501 14.3123 13.1383 14.2778 13.1361 14.242V14.236C13.1336 14.2178 13.1336 14.1993 13.1361 14.181C13.1422 14.1485 13.1555 14.1178 13.1751 14.0911C13.1946 14.0644 13.2199 14.0425 13.2491 14.027C13.2784 14.0111 13.3109 14.002 13.3441 14.0004C13.3774 13.9989 13.4105 14.0049 13.4411 14.018L13.4741 14.035C13.4876 14.0443 13.5003 14.0547 13.5121 14.066L13.9681 14.522L21.5041 6.98701C21.5927 6.8972 21.6423 6.77614 21.6423 6.65001C21.6423 6.52389 21.5927 6.40283 21.5041 6.31301L17.4891 2.29201C17.4064 2.21101 17.2972 2.16266 17.1816 2.15586C17.066 2.14906 16.9518 2.18427 16.8601 2.25501ZM18.1521 6.12601C18.1357 6.11398 18.1226 6.0978 18.1144 6.07913C18.1062 6.06045 18.103 6.03993 18.1052 6.01964C18.1075 5.99935 18.115 5.98001 18.1271 5.96357C18.1392 5.94713 18.1554 5.93418 18.1741 5.92601C18.2491 5.88001 18.3041 5.94001 18.3671 6.00301L18.7541 6.39001C18.9101 6.24801 19.0671 6.07901 19.2171 5.92901C19.2931 5.85201 19.3621 5.75201 19.4451 5.77701C19.4662 5.78125 19.4857 5.7912 19.5015 5.80578C19.5172 5.82035 19.5287 5.83899 19.5346 5.85964C19.5405 5.8803 19.5406 5.90218 19.5348 5.92288C19.5291 5.94358 19.5178 5.96231 19.5021 5.97701L18.8431 6.63601C18.8333 6.65045 18.8201 6.66227 18.8047 6.67043C18.7893 6.6786 18.7721 6.68287 18.7546 6.68287C18.7372 6.68287 18.72 6.6786 18.7046 6.67043C18.6891 6.66227 18.676 6.65045 18.6661 6.63601L18.1521 6.12601ZM17.2171 7.01101C17.2073 6.99607 17.201 6.9791 17.1987 6.96137C17.1964 6.94364 17.1982 6.92562 17.2039 6.90867C17.2095 6.89172 17.219 6.87628 17.2315 6.86352C17.244 6.85076 17.2593 6.84101 17.2761 6.83501C17.3551 6.80101 17.3981 6.86101 17.4611 6.92401L17.8431 7.30601C18.0431 7.12001 18.2271 6.91701 18.4191 6.73101C18.4305 6.71641 18.4453 6.70483 18.4622 6.69729C18.4791 6.68974 18.4976 6.68647 18.5161 6.68776C18.5346 6.68904 18.5524 6.69484 18.5681 6.70465C18.5838 6.71446 18.5969 6.72798 18.6061 6.74401C18.6641 6.82201 18.6131 6.87101 18.5431 6.94401L17.9751 7.51201C17.9091 7.57801 17.8571 7.63701 17.7811 7.57801L17.2171 7.01101ZM16.9431 7.33501C16.9303 7.3245 16.9198 7.31143 16.9123 7.29661C16.9048 7.2818 16.9005 7.26559 16.8996 7.24901C16.8988 7.23243 16.9014 7.21586 16.9073 7.20036C16.9133 7.18486 16.9224 7.17077 16.9341 7.159C16.9458 7.14722 16.9598 7.13803 16.9753 7.132C16.9907 7.12598 17.0073 7.12326 17.0239 7.12401C17.0405 7.12477 17.0567 7.12898 17.0716 7.13639C17.0864 7.14379 17.0996 7.15422 17.1101 7.16701L17.6251 7.68201C17.639 7.69245 17.6503 7.70597 17.658 7.7215C17.6658 7.73703 17.6698 7.75415 17.6698 7.77151C17.6698 7.78887 17.6658 7.80599 17.658 7.82153C17.6503 7.83706 17.639 7.85058 17.6251 7.86101C17.5611 7.91601 17.5071 7.89401 17.4461 7.83301L16.9431 7.33501ZM15.9321 8.18101C15.9376 8.1649 15.9462 8.15008 15.9576 8.13747C15.969 8.12485 15.9829 8.11471 15.9984 8.10768C16.0138 8.10064 16.0306 8.09687 16.0476 8.09658C16.0646 8.09629 16.0814 8.0995 16.0971 8.10601C16.1591 8.15774 16.2179 8.21318 16.2731 8.27201C16.3111 8.19914 16.3445 8.12399 16.3731 8.04701L16.5651 7.60201C16.5961 7.53001 16.6211 7.42701 16.7141 7.42801C16.7354 7.42741 16.7564 7.43265 16.7748 7.44317C16.7933 7.45368 16.8085 7.46906 16.8188 7.48763C16.8291 7.5062 16.8342 7.52725 16.8333 7.54848C16.8325 7.56971 16.8259 7.5903 16.8141 7.60801C16.7801 7.68201 16.7511 7.75201 16.7191 7.82701C16.6661 7.94901 16.5751 8.21801 16.5471 8.27301L17.1931 7.97301C17.2112 7.96667 17.2306 7.96483 17.2495 7.96764C17.2685 7.97046 17.2865 7.97784 17.3019 7.98917C17.3174 8.00049 17.3299 8.01541 17.3383 8.03263C17.3467 8.04985 17.3507 8.06886 17.3501 8.08801C17.3431 8.17601 17.2501 8.20301 17.1771 8.23901L16.7541 8.43901C16.6818 8.46983 16.6114 8.50489 16.5431 8.54401C16.5921 8.59301 16.6851 8.67001 16.6911 8.72601C16.6921 8.74325 16.6896 8.7605 16.6838 8.77676C16.678 8.79303 16.669 8.80797 16.6574 8.82072C16.6457 8.83348 16.6317 8.84378 16.616 8.85104C16.6003 8.8583 16.5834 8.86237 16.5661 8.86301C16.5021 8.86301 16.4401 8.77801 16.3861 8.72401L16.0221 8.36001C15.9561 8.29301 15.9001 8.25401 15.9321 8.18101ZM15.8521 8.50801C15.8661 8.57901 15.8071 8.62301 15.7441 8.68501C15.6151 8.81501 15.3201 9.09601 15.2321 9.20001L15.3261 9.29401C15.4111 9.22701 15.7261 8.89401 15.8471 8.77701C15.8981 8.72601 15.9471 8.65401 16.0161 8.67101C16.1439 8.76491 16.2601 8.87368 16.3621 8.99501C16.4131 9.06401 16.3761 9.10901 16.3141 9.17001L15.7941 9.68901C15.7521 9.73201 15.6721 9.82901 15.6211 9.84301C15.6053 9.84731 15.5887 9.8483 15.5725 9.84594C15.5563 9.84358 15.5407 9.83792 15.5267 9.82929C15.5127 9.82067 15.5007 9.80928 15.4913 9.79581C15.4819 9.78235 15.4754 9.7671 15.4721 9.75101C15.4571 9.67701 15.5161 9.63401 15.5721 9.57601L16.0901 9.05801L15.9901 8.95801L15.4611 9.48701C15.4051 9.54301 15.3611 9.60201 15.2931 9.57901C15.1678 9.48039 15.0525 9.3695 14.9491 9.24801C14.9091 9.18401 14.9491 9.13501 15.0081 9.07701L15.5281 8.55701C15.5731 8.51201 15.6451 8.42301 15.7001 8.40801C15.7167 8.40392 15.734 8.4033 15.7508 8.40619C15.7677 8.40909 15.7837 8.41542 15.798 8.42481C15.8123 8.4342 15.8244 8.44644 15.8338 8.46076C15.8431 8.47507 15.8493 8.49116 15.8521 8.50801ZM14.7411 8.00001C14.1516 7.94211 13.5588 8.07271 13.0481 8.37301C12.3668 8.80701 11.8588 9.46574 11.6121 10.235L11.5371 10.515V10.31L11.5521 10.11C11.5739 9.83258 11.6297 9.55886 11.7181 9.29501C11.7421 9.22601 11.7651 9.16201 11.7941 9.09501C11.8091 9.06001 11.8211 9.03001 11.8381 8.99501C11.8451 8.97801 11.8891 8.90601 11.8891 8.90601C12.1342 8.62366 12.4196 8.37903 12.7361 8.18001C13.2453 7.85149 13.8574 7.72158 14.4561 7.81501C14.7589 7.86343 15.0489 7.97189 15.3091 8.13401C15.1263 8.06541 14.9354 8.02038 14.7411 8.00001ZM15.4951 10.118C15.4881 10.1318 15.4783 10.1441 15.4665 10.1541C15.4547 10.1641 15.441 10.1717 15.4262 10.1764C15.4114 10.1812 15.3959 10.183 15.3804 10.1817C15.365 10.1804 15.3499 10.1761 15.3361 10.169C15.3224 10.1619 15.3101 10.1522 15.3001 10.1404C15.29 10.1285 15.2824 10.1148 15.2777 10.1001C15.273 10.0853 15.2712 10.0698 15.2725 10.0543C15.2737 10.0389 15.2781 10.0238 15.2851 10.01C15.2912 9.99462 15.3004 9.98066 15.3122 9.96899C15.3239 9.95733 15.3379 9.94822 15.3533 9.94223C15.3688 9.93625 15.3853 9.93352 15.4018 9.93421C15.4183 9.93491 15.4345 9.93902 15.4494 9.94628C15.4643 9.95354 15.4775 9.9638 15.4882 9.97641C15.4989 9.98902 15.5069 10.0037 15.5117 10.0196C15.5164 10.0354 15.5179 10.0521 15.5159 10.0685C15.5139 10.0849 15.5085 10.1008 15.5001 10.115L15.4951 10.118ZM13.7951 10.3L14.4711 9.62601C14.4884 9.61356 14.5086 9.60599 14.5298 9.6041C14.551 9.60222 14.5723 9.60609 14.5915 9.61531C14.6106 9.62453 14.6269 9.63876 14.6387 9.65648C14.6504 9.67421 14.6571 9.69478 14.6581 9.71601C14.6631 9.79601 14.5521 9.87701 14.4881 9.94201L14.0371 10.393L14.3971 10.753C14.4741 10.676 14.8651 10.303 14.8971 10.247L14.8051 10.158C14.7241 10.22 14.6351 10.333 14.5551 10.404C14.5388 10.422 14.5174 10.4345 14.4937 10.4399C14.4701 10.4454 14.4453 10.4434 14.4228 10.4344C14.4003 10.4254 14.3811 10.4097 14.3677 10.3894C14.3544 10.3691 14.3475 10.3453 14.3481 10.321C14.3481 10.245 14.4911 10.135 14.5541 10.071C14.6171 10.007 14.7271 9.88601 14.8051 9.82301C14.8791 9.88601 14.9631 9.97901 15.0331 10.05C15.1031 10.121 15.2091 10.195 15.1901 10.273C15.1771 10.327 14.6351 10.85 14.5241 10.962C14.4311 11.055 14.3931 11.082 14.2941 10.983L13.8441 10.533C13.7551 10.44 13.7001 10.4 13.8001 10.3H13.7951ZM10.0591 9.53801C10.0946 9.48923 10.1438 9.45208 10.2004 9.43125C10.2571 9.41042 10.3186 9.40685 10.3772 9.42099C10.4359 9.43513 10.489 9.46635 10.5299 9.51069C10.5708 9.55504 10.5977 9.61051 10.607 9.67011C10.6164 9.72971 10.6079 9.79074 10.5826 9.8455C10.5573 9.90026 10.5163 9.94628 10.4648 9.97774C10.4133 10.0092 10.3537 10.0247 10.2934 10.0222C10.2331 10.0198 10.1749 9.99954 10.1261 9.96401C10.0937 9.9401 10.0663 9.91002 10.0455 9.8755C10.0247 9.84097 10.011 9.80267 10.005 9.76281C9.99906 9.72295 10.001 9.6823 10.0108 9.64321C10.0207 9.60412 10.0381 9.56735 10.0621 9.53501L10.0591 9.53801ZM2.80014 17.828L2.37914 17.4C2.31472 17.3353 2.27855 17.2478 2.27855 17.1565C2.27855 17.0652 2.31472 16.9777 2.37914 16.913L8.23014 11.065L6.98114 13.649L2.80014 17.828ZM13.4651 14.836L7.13514 21.168L6.77614 20.809L13.1091 14.477L13.4651 14.836ZM10.7651 11.723C10.6858 11.8257 10.5697 11.8935 10.4414 11.9122C10.313 11.9308 10.1824 11.8988 10.0771 11.823C10.0253 11.7841 9.98162 11.7352 9.94876 11.6793C9.91591 11.6233 9.89449 11.5614 9.88574 11.4972C9.877 11.4329 9.8811 11.3675 9.89783 11.3048C9.91455 11.2421 9.94355 11.1834 9.98314 11.132C10.0211 11.0792 10.0693 11.0345 10.1248 11.0006C10.1802 10.9666 10.2419 10.944 10.3062 10.9342C10.3705 10.9244 10.4362 10.9275 10.4992 10.9433C10.5623 10.9592 10.6216 10.9875 10.6736 11.0265C10.7257 11.0656 10.7694 11.1146 10.8022 11.1708C10.835 11.2269 10.8563 11.2891 10.8649 11.3535C10.8734 11.418 10.869 11.4836 10.8518 11.5463C10.8347 11.6091 10.8052 11.6678 10.7651 11.719V11.723ZM11.6341 11.903L11.6591 11.962V11.985L11.6721 12.017C11.8067 12.3569 12.0022 12.6694 12.2491 12.939C11.8602 12.7152 11.5629 12.361 11.4101 11.939C11.2998 11.674 11.2281 11.3944 11.1971 11.109L11.1781 10.871L11.1961 10.913L11.1751 10.835C11.1708 10.738 11.1462 10.643 11.1031 10.556C10.9652 10.2983 10.8776 10.0166 10.8451 9.72601C10.8248 9.54258 10.8248 9.35745 10.8451 9.17401C10.8636 8.98559 10.9087 8.80075 10.9791 8.62501C10.9466 8.84434 10.9446 9.06713 10.9731 9.28701C11.0007 9.51318 11.0578 9.73474 11.1431 9.94601C11.1929 9.61023 11.2913 9.28347 11.4351 8.97601C11.5838 8.6147 11.81 8.29041 12.0977 8.02605C12.3854 7.76169 12.7276 7.56368 13.1001 7.44601C13.4112 7.3514 13.7387 7.32379 14.0611 7.36501C13.9611 7.37901 13.8731 7.38601 13.7611 7.41001C13.354 7.50318 12.9729 7.68624 12.6457 7.94579C12.3185 8.20533 12.0535 8.53479 11.8701 8.91001L11.8861 8.89601C11.8861 8.89601 11.8421 8.96701 11.8351 8.98501L11.7911 9.08501C11.7631 9.15368 11.7378 9.22035 11.7151 9.28501C11.6267 9.54886 11.5709 9.82258 11.5491 10.1L11.5341 10.3V10.505C11.5341 10.561 11.5141 10.6 11.5641 10.659C11.697 10.8217 11.8483 10.9684 12.0151 11.096C12.2056 11.2434 12.4131 11.3673 12.6331 11.465C13.0215 11.6423 13.4391 11.747 13.8651 11.774C14.2915 11.7959 14.7167 11.7124 15.1031 11.531C15.3238 11.4272 15.531 11.2969 15.7201 11.143C15.8305 11.0538 15.9345 10.9569 16.0311 10.853C16.1181 10.761 16.2561 10.577 16.2821 10.553C16.2537 10.6603 16.2117 10.7634 16.1571 10.86C15.9528 11.1938 15.6699 11.4726 15.3331 11.672C14.9604 11.9046 14.5425 12.0552 14.1071 12.114C13.6593 12.1672 13.2052 12.1174 12.7796 11.9684C12.3539 11.8193 11.968 11.575 11.6511 11.254L11.6571 11.288C11.7097 11.4538 11.7794 11.6137 11.8651 11.765C12.1348 12.2321 12.531 12.6135 13.0081 12.865L13.2591 12.985C13.1166 12.9837 12.9753 12.9569 12.8421 12.906C12.3372 12.7162 11.911 12.3618 11.6321 11.9L11.6341 11.903ZM21.1581 7.14201L13.9681 14.332L13.6091 13.973L20.8001 6.78301L21.1581 7.14201Z" fill="black"/>
</svg>
