<svg width="21" height="21" viewBox="0 0 21 21" fill="none" xmlns="http://www.w3.org/2000/svg">
<path d="M10.4999 8.48756C8.70617 8.48756 7.80929 10.6549 9.07717 11.9228C10.345 13.1907 12.5124 12.2938 12.5124 10.5001C12.513 10.2356 12.4613 9.97366 12.3604 9.72923C12.2595 9.4848 12.1112 9.26271 11.9243 9.07572C11.7373 8.88873 11.5152 8.74051 11.2708 8.63958C11.0263 8.53864 10.7644 8.48698 10.4999 8.48756ZM10.4999 12.3594C8.83829 12.3594 8.00792 10.3496 9.18392 9.17619C10.3599 8.00281 12.3672 8.83844 12.3637 10.5001C12.3637 11.5291 11.5289 12.3638 10.4999 12.3629V12.3594ZM16.4648 13.9738L16.1883 13.2213C15.7665 13.1688 15.392 13.1102 15.0578 13.0463L14.5328 13.5923L14.2624 12.8626C13.608 12.7108 13.0047 12.3904 12.5124 11.9333C13.9124 11.8344 15.6353 11.1694 18.8185 8.61531C18.4814 7.54388 17.9371 6.54913 17.2164 5.68756C16.9831 5.96756 16.7582 6.23152 16.5418 6.47944L16.6879 7.30019L15.9827 7.10156C15.7429 7.35998 15.5131 7.59681 15.2932 7.81206L15.4262 8.55756L14.7043 8.35544C14.1487 8.90019 13.4604 9.29021 12.7075 9.48681C13.32 8.17431 13.6377 6.64481 13.0077 2.45356C12.2095 2.13651 11.3587 1.97293 10.4999 1.97144C10.0256 1.97554 9.55299 2.0304 9.09029 2.13506C9.23613 2.42206 9.37175 2.69477 9.49717 2.95319L10.6767 3.24544L9.95742 3.95419C10.1088 4.30419 10.2374 4.62269 10.3442 4.91669L11.1702 5.12144L10.5962 5.68756C10.8511 6.44241 10.8893 7.2536 10.7064 8.02906C9.95567 6.77081 8.20479 5.44344 5.28142 4.14056C4.15945 5.08784 3.24497 6.2564 2.59517 7.57318C3.02567 7.6006 3.42583 7.62977 3.79567 7.66069L4.51492 6.89856L4.74854 7.76044C5.13646 7.80769 5.48821 7.85989 5.80379 7.91706L6.43904 7.24419L6.67354 8.11131C7.35708 8.26019 7.98861 8.58849 8.50317 9.06244C7.10317 9.16044 5.37942 9.82369 2.19092 12.3796C2.52569 13.4504 3.06734 14.4451 3.78517 15.3073C4.05758 14.9789 4.32008 14.6724 4.57267 14.3877L4.28042 13.5914L5.12392 13.7796C5.4045 13.4803 5.67225 13.2108 5.92717 12.9711L5.67779 12.2912L6.49242 12.4723C7.00332 12.0035 7.62319 11.6696 8.29579 11.5011C7.68329 12.8206 7.36217 14.3466 7.99742 18.5457C8.79391 18.8621 9.64288 19.0257 10.4999 19.0278C10.974 19.0236 11.4463 18.9688 11.9087 18.8642C11.7398 18.5346 11.5756 18.2027 11.416 17.8684L10.5279 17.6803L11.0319 17.0284C10.8444 16.6018 10.676 16.1671 10.527 15.7256L9.89617 15.5926L10.3267 15.0343C10.1346 14.3574 10.1213 13.6423 10.2882 12.9588C11.0345 14.2206 12.7837 15.5541 15.7184 16.8648C16.846 15.9146 17.7645 14.741 18.416 13.4182C17.9763 13.3915 17.5371 13.3585 17.0983 13.3193L16.4648 13.9738ZM10.5288 12.7488C10.0847 12.7488 9.6505 12.6171 9.28119 12.3705C8.91187 12.1238 8.62398 11.7731 8.4539 11.3628C8.28382 10.9526 8.23918 10.5011 8.32564 10.0655C8.41209 9.62982 8.62575 9.22959 8.93962 8.91536C9.25348 8.60113 9.65346 8.387 10.089 8.30004C10.5245 8.21308 10.9761 8.25718 11.3865 8.42678C11.797 8.59639 12.148 8.88387 12.3951 9.2529C12.6422 9.62192 12.7744 10.0559 12.7749 10.5001C12.7749 10.795 12.7168 11.087 12.6039 11.3595C12.491 11.6319 12.3256 11.8795 12.117 12.088C11.9084 12.2965 11.6608 12.4619 11.3883 12.5747C11.1158 12.6874 10.8237 12.7454 10.5288 12.7453V12.7488ZM10.4999 9.62506C10.3269 9.62506 10.1577 9.67638 10.0138 9.77252C9.8699 9.86867 9.75775 10.0053 9.69152 10.1652C9.6253 10.3251 9.60797 10.501 9.64173 10.6708C9.67549 10.8405 9.75883 10.9964 9.8812 11.1188C10.0036 11.2411 10.1595 11.3245 10.3292 11.3582C10.4989 11.392 10.6749 11.3747 10.8348 11.3085C10.9947 11.2422 11.1313 11.1301 11.2275 10.9862C11.3236 10.8423 11.3749 10.6731 11.3749 10.5001C11.3749 10.268 11.2827 10.0454 11.1186 9.88134C10.9545 9.71725 10.732 9.62506 10.4999 9.62506Z" fill="black"/>
</svg>
