<svg width="21" height="20" viewBox="0 0 21 20" fill="none" xmlns="http://www.w3.org/2000/svg">
<path d="M15.0938 2.625C15.2678 2.625 15.4347 2.69414 15.5578 2.81721C15.6809 2.94028 15.75 3.1072 15.75 3.28125V12.4688C15.75 12.6428 15.6809 12.8097 15.5578 12.9328C15.4347 13.0559 15.2678 13.125 15.0938 13.125C14.9197 13.125 14.7528 13.0559 14.6297 12.9328C14.5066 12.8097 14.4375 12.6428 14.4375 12.4688V3.28125C14.4375 3.1072 14.5066 2.94028 14.6297 2.81721C14.7528 2.69414 14.9197 2.625 15.0938 2.625ZM17.7188 2.625C17.8928 2.625 18.0597 2.69414 18.1828 2.81721C18.3059 2.94028 18.375 3.1072 18.375 3.28125V12.4688C18.375 12.6428 18.3059 12.8097 18.1828 12.9328C18.0597 13.0559 17.8928 13.125 17.7188 13.125C17.5447 13.125 17.3778 13.0559 17.2547 12.9328C17.1316 12.8097 17.0625 12.6428 17.0625 12.4688V3.28125C17.0625 3.1072 17.1316 2.94028 17.2547 2.81721C17.3778 2.69414 17.5447 2.625 17.7188 2.625ZM4.59375 13.125C4.4197 13.125 4.25278 13.1941 4.12971 13.3172C4.00664 13.4403 3.9375 13.6072 3.9375 13.7812C3.9375 13.9553 4.00664 14.1222 4.12971 14.2453C4.25278 14.3684 4.4197 14.4375 4.59375 14.4375H12.4688C12.6428 14.4375 12.8097 14.3684 12.9328 14.2453C13.0559 14.1222 13.125 13.9553 13.125 13.7812C13.125 13.6072 13.0559 13.4403 12.9328 13.3172C12.8097 13.1941 12.6428 13.125 12.4688 13.125H4.59375ZM4.59375 15.75C4.4197 15.75 4.25278 15.8191 4.12971 15.9422C4.00664 16.0653 3.9375 16.2322 3.9375 16.4062C3.9375 16.5803 4.00664 16.7472 4.12971 16.8703C4.25278 16.9934 4.4197 17.0625 4.59375 17.0625H12.4688C12.6428 17.0625 12.8097 16.9934 12.9328 16.8703C13.0559 16.7472 13.125 16.5803 13.125 16.4062C13.125 16.2322 13.0559 16.0653 12.9328 15.9422C12.8097 15.8191 12.6428 15.75 12.4688 15.75H4.59375ZM6.5625 3.9375C6.2144 3.9375 5.88056 4.07578 5.63442 4.32192C5.38828 4.56806 5.25 4.9019 5.25 5.25H4.59375C4.4197 5.25 4.25278 5.31914 4.12971 5.44221C4.00664 5.56528 3.9375 5.7322 3.9375 5.90625C3.9375 6.0803 4.00664 6.24722 4.12971 6.37029C4.25278 6.49336 4.4197 6.5625 4.59375 6.5625H5.25V7.875H4.59375C4.4197 7.875 4.25278 7.94414 4.12971 8.06721C4.00664 8.19028 3.9375 8.3572 3.9375 8.53125C3.9375 8.7053 4.00664 8.87222 4.12971 8.99529C4.25278 9.11836 4.4197 9.1875 4.59375 9.1875H5.25C5.25 9.5356 5.38828 9.86944 5.63442 10.1156C5.88056 10.3617 6.2144 10.5 6.5625 10.5V11.1562C6.5625 11.3303 6.63164 11.4972 6.75471 11.6203C6.87778 11.7434 7.0447 11.8125 7.21875 11.8125C7.3928 11.8125 7.55972 11.7434 7.68279 11.6203C7.80586 11.4972 7.875 11.3303 7.875 11.1562V10.5H9.1875V11.1562C9.1875 11.3303 9.25664 11.4972 9.37971 11.6203C9.50278 11.7434 9.6697 11.8125 9.84375 11.8125C10.0178 11.8125 10.1847 11.7434 10.3078 11.6203C10.4309 11.4972 10.5 11.3303 10.5 11.1562V10.5C10.8481 10.5 11.1819 10.3617 11.4281 10.1156C11.6742 9.86944 11.8125 9.5356 11.8125 9.1875H12.4688C12.6428 9.1875 12.8097 9.11836 12.9328 8.99529C13.0559 8.87222 13.125 8.7053 13.125 8.53125C13.125 8.3572 13.0559 8.19028 12.9328 8.06721C12.8097 7.94414 12.6428 7.875 12.4688 7.875H11.8125V6.5625H12.4688C12.6428 6.5625 12.8097 6.49336 12.9328 6.37029C13.0559 6.24722 13.125 6.0803 13.125 5.90625C13.125 5.7322 13.0559 5.56528 12.9328 5.44221C12.8097 5.31914 12.6428 5.25 12.4688 5.25H11.8125C11.8125 4.9019 11.6742 4.56806 11.4281 4.32192C11.1819 4.07578 10.8481 3.9375 10.5 3.9375V3.28125C10.5 3.1072 10.4309 2.94028 10.3078 2.81721C10.1847 2.69414 10.0178 2.625 9.84375 2.625C9.6697 2.625 9.50278 2.69414 9.37971 2.81721C9.25664 2.94028 9.1875 3.1072 9.1875 3.28125V3.9375H7.875V3.28125C7.875 3.1072 7.80586 2.94028 7.68279 2.81721C7.55972 2.69414 7.3928 2.625 7.21875 2.625C7.0447 2.625 6.87778 2.69414 6.75471 2.81721C6.63164 2.94028 6.5625 3.1072 6.5625 3.28125V3.9375ZM6.5625 5.25H10.5V9.1875H6.5625V5.25ZM15.0938 14.4375C14.9197 14.4375 14.7528 14.5066 14.6297 14.6297C14.5066 14.7528 14.4375 14.9197 14.4375 15.0938V16.4062C14.4375 16.5803 14.5066 16.7472 14.6297 16.8703C14.7528 16.9934 14.9197 17.0625 15.0938 17.0625H17.7188C17.8928 17.0625 18.0597 16.9934 18.1828 16.8703C18.3059 16.7472 18.375 16.5803 18.375 16.4062V15.0938C18.375 14.9197 18.3059 14.7528 18.1828 14.6297C18.0597 14.5066 17.8928 14.4375 17.7188 14.4375H15.0938Z" fill="black"/>
<path d="M1.3125 2.625C1.3125 1.92881 1.58906 1.26113 2.08134 0.768845C2.57363 0.276562 3.24131 0 3.9375 0L18.375 0C19.0712 0 19.7389 0.276562 20.2312 0.768845C20.7234 1.26113 21 1.92881 21 2.625V17.0625C21 17.7587 20.7234 18.4264 20.2312 18.9187C19.7389 19.4109 19.0712 19.6875 18.375 19.6875H3.9375C3.24131 19.6875 2.57363 19.4109 2.08134 18.9187C1.58906 18.4264 1.3125 17.7587 1.3125 17.0625V14.4375H0.65625C0.482202 14.4375 0.315282 14.3684 0.192211 14.2453C0.0691404 14.1222 0 13.9553 0 13.7812V12.4688C0 12.2947 0.0691404 12.1278 0.192211 12.0047C0.315282 11.8816 0.482202 11.8125 0.65625 11.8125H1.3125V10.5H0.65625C0.482202 10.5 0.315282 10.4309 0.192211 10.3078C0.0691404 10.1847 0 10.0178 0 9.84375V8.53125C0 8.3572 0.0691404 8.19028 0.192211 8.06721C0.315282 7.94414 0.482202 7.875 0.65625 7.875H1.3125V6.5625H0.65625C0.482202 6.5625 0.315282 6.49336 0.192211 6.37029C0.0691404 6.24722 0 6.0803 0 5.90625V3.28125C0 3.1072 0.0691404 2.94028 0.192211 2.81721C0.315282 2.69414 0.482202 2.625 0.65625 2.625H1.3125ZM2.625 17.0625C2.625 17.4106 2.76328 17.7444 3.00942 17.9906C3.25556 18.2367 3.5894 18.375 3.9375 18.375H18.375C18.7231 18.375 19.0569 18.2367 19.3031 17.9906C19.5492 17.7444 19.6875 17.4106 19.6875 17.0625V2.625C19.6875 2.2769 19.5492 1.94306 19.3031 1.69692C19.0569 1.45078 18.7231 1.3125 18.375 1.3125H3.9375C3.5894 1.3125 3.25556 1.45078 3.00942 1.69692C2.76328 1.94306 2.625 2.2769 2.625 2.625V17.0625Z" fill="black"/>
</svg>
