<svg width="21" height="21" viewBox="0 0 21 21" fill="none" xmlns="http://www.w3.org/2000/svg">
<path fill-rule="evenodd" clip-rule="evenodd" d="M2.5 15.5L2.5 11.5L4.98 5.712C5.13432 5.352 5.39096 5.04524 5.71805 4.82978C6.04515 4.61432 6.42832 4.49965 6.82 4.5H14.182C14.5733 4.50004 14.9561 4.6149 15.2828 4.83033C15.6095 5.04576 15.8658 5.35231 16.02 5.712L18.5 11.5V15.5C18.5 16.0304 18.2893 16.5391 17.9142 16.9142C17.5391 17.2893 17.0304 17.5 16.5 17.5H4.5C3.96957 17.5 3.46086 17.2893 3.08579 16.9142C2.71071 16.5391 2.5 16.0304 2.5 15.5Z" stroke="black" stroke-linecap="round" stroke-linejoin="round"/>
<path d="M6 14C6 13.4477 5.55228 13 5 13C4.44772 13 4 13.4477 4 14C4 14.5523 4.44772 15 5 15C5.55228 15 6 14.5523 6 14Z" fill="black"/>
<path d="M3 11.5L18 11.5" stroke="black" stroke-linecap="round" stroke-linejoin="round"/>
</svg>
