<svg width="21" height="21" viewBox="0 0 21 21" fill="none" xmlns="http://www.w3.org/2000/svg">
<path d="M9.21879 9.29372e-05V5.30044H10.0396V0H9.21884L9.21879 9.29372e-05ZM4.19539 0.02905C3.47578 0.02905 2.89167 0.61311 2.89167 1.33272C2.89167 2.05233 3.47578 2.635 4.19539 2.635C4.78265 2.635 5.27849 2.24649 5.4411 1.71269H7.52643V5.30044H8.34725V0.891915H5.42216C5.24174 0.389018 4.76033 0.02905 4.19539 0.02905ZM13.1633 0.02905C12.4437 0.02905 11.861 0.61311 11.861 1.33272C11.861 1.89534 12.2172 2.37453 12.7167 2.55671V5.3004H13.536V2.58136C14.0741 2.42116 14.467 1.92272 14.467 1.33277C14.467 0.61311 13.8829 0.02905 13.1633 0.02905H13.1633ZM10.9488 2.79742V5.30044H11.7682V2.79742H10.9489H10.9488ZM19.6977 2.98443C18.9781 2.98443 18.394 3.56859 18.394 4.2882C18.394 4.89532 18.8092 5.40537 19.3714 5.54987V6.82454H15.0586V7.64392H20.1922V5.4934C20.6666 5.29886 21 4.83291 21 4.28825C21 3.56863 20.4172 2.98453 19.6976 2.98453L19.6977 2.98443ZM0 4.24328V5.0641H3.08889V7.64397H6.00381V6.82449H3.90972V4.24323L0 4.24328ZM6.8231 6.12131V13.5331H14.2392V6.12122H6.82315L6.8231 6.12131ZM7.63798 6.84779H8.45737V10.495L9.96123 11.9989H13.4546V12.8183H9.62048L9.5001 12.6979L9.00124 12.199C8.9533 12.5418 8.6597 12.8052 8.30377 12.8052C7.91433 12.8052 7.59886 12.4898 7.59886 12.1004C7.59886 11.7439 7.86319 11.4517 8.20655 11.4044L7.7585 10.9562L7.63812 10.8358V6.8477L7.63798 6.84779ZM10.1875 6.85508H11.0082V9.42191H13.4459L13.446 10.2427H10.1876V6.85512L10.1875 6.85508ZM1.0644 8.59231V12.7674C0.531204 12.9304 0.143532 13.4262 0.143532 14.0131C0.143532 14.7326 0.726247 15.3168 1.44586 15.3168C2.16547 15.3168 2.74953 14.7327 2.74953 14.0131C2.74953 13.4472 2.38803 12.966 1.88379 12.7863V9.41165H6.00377V8.59236H1.0644V8.59231ZM15.0586 8.59231V9.41165H17.563V8.59236H15.0585L15.0586 8.59231ZM19.6977 9.61185C19.1919 9.61185 18.7537 9.90002 18.5375 10.3209H15.0585L15.0586 11.1417H18.4143C18.5222 11.7528 19.0558 12.2177 19.6977 12.2177C20.4173 12.2177 21 11.6336 21 10.914C21 10.1945 20.4173 9.6118 19.6977 9.6118V9.61185ZM3.49926 10.3209V11.1417H6.00377V10.3209H3.49926ZM4.29539 12.0133V15.9215C3.76182 16.0845 3.37308 16.5804 3.37308 17.1672C3.37308 17.8867 3.95719 18.4709 4.6768 18.4709C5.39636 18.4709 5.97894 17.8867 5.97894 17.1672C5.97894 16.6013 5.61855 16.1201 5.11468 15.9404V12.834H6.00363V12.0132H4.29544L4.29539 12.0133ZM15.0586 12.0133V12.8341H17.1541V17.2557C16.6286 17.4239 16.2478 17.9175 16.2478 18.4985C16.2477 19.218 16.8318 19.8007 17.5514 19.8007C18.271 19.8007 18.8537 19.218 18.8537 18.4985C18.8537 17.9268 18.4855 17.4415 17.9734 17.2658V12.0133H15.0585H15.0586ZM7.52643 14.3538V16.8612H8.34725V14.3538H7.52643ZM9.21884 14.3538V18.3708C8.70777 18.5469 8.33991 19.0313 8.33991 19.602C8.33991 20.3216 8.92407 20.9058 9.64368 20.9058C10.3633 20.9058 10.946 20.3215 10.946 19.602C10.946 19.0205 10.5653 18.5282 10.0396 18.3606V14.3538H9.21884ZM10.9488 14.3538V16.8612H11.7697L11.7682 14.3538H10.9489L10.9488 14.3538ZM12.7166 14.3538V20.8535H13.5359V14.3538H12.7167H12.7166Z" fill="black"/>
</svg>
